<svg class="sf-toggle-checked" width="400px" height="225px" viewBox="0 0 400 225" version="1.1" xmlns="http://www.w3.org/2000/svg" xmlns:xlink="http://www.w3.org/1999/xlink">
    <g stroke="none" stroke-width="1" fill="none" fill-rule="evenodd">
        <g class="Checked">
            <path d="M284.89,14 L115.5,14 C61.0999521,14 17,58.0999521 17,112.5 L17,112.5 C17,166.900048 61.0999521,211 115.5,211 L284.89,211 C339.290048,211 383.39,166.900048 383.39,112.5 L383.39,112.5 C383.39,58.0999521 339.290048,14 284.89,14 Z" fill="#FFFFFF"></path>
            <path d="M287.226919,0 L112.773081,0 C51.1844117,0 1.01182785,49.2929393 0.0147076783,110.643285 L0,112.408446 C0,174.632034 50.4900229,225 112.773081,225 L287.226919,225 C348.815588,225 398.988172,175.707061 399.985292,114.356715 L400,112.591554 C400,50.3679656 349.509977,0 287.226919,0 Z M283.217883,20 C336.134657,20 379.132371,60.8089316 379.987034,111.462075 L380,113 L379.987034,114.537925 C379.140918,164.684537 336.990397,205.182837 284.802378,205.987788 L283.217883,206 L116.782117,206 C63.8653427,206 20.8676286,165.191068 20.012966,114.537925 L20,113 L20.012966,111.462075 C20.859082,61.315463 63.0096028,20.8171631 115.197622,20.0122117 L116.782117,20 L283.217883,20 Z" class="border" fill="#13BF11" fill-rule="nonzero"></path>
            <path d="M284.89,14 L115.5,14 C61.0999521,14 17,58.0999521 17,112.5 L17,112.5 C17,166.900048 61.0999521,211 115.5,211 L284.89,211 C339.290048,211 383.39,166.900048 383.39,112.5 L383.39,112.5 C383.39,58.0999521 339.290048,14 284.89,14 Z M312.223329,44.9357336 C339.551365,56.254282 357.37,82.9207661 357.37,112.5 C357.37,152.884679 324.634678,185.624478 284.25,185.630002 C254.670766,185.634045 228.001846,167.819057 216.67956,140.492569 C205.357275,113.166082 211.611499,81.7099246 232.525745,60.7928177 C253.439992,39.8757107 284.895293,33.6171853 312.223329,44.9357336 Z M156.464689,77.4644057 L163.535594,84.5355064 C165.488135,86.4880474 165.488135,89.6538708 163.535594,91.606607 L106.035538,149.106859 C104.082802,151.059399 100.916978,151.059399 98.9644375,149.106663 L66.4644057,116.606631 C64.5118648,114.65409 64.5118648,111.488267 66.4644057,109.535531 L73.5353111,102.46443 C75.487852,100.511694 78.6538708,100.511694 80.6064117,102.46443 L102.499988,124.357811 L149.393588,77.4644057 C151.346129,75.5118648 154.512148,75.5118648 156.464689,77.4644057 Z" class="recolor" fill="#13BF11" fill-rule="nonzero"></path>
        </g>
    </g>
</svg>
