<svg class="sf-toggle-unchecked" width="400px" height="225px" viewBox="0 0 400 225" version="1.1" xmlns="http://www.w3.org/2000/svg" xmlns:xlink="http://www.w3.org/1999/xlink">
    <title>Check-False</title>
    <g stroke="none" stroke-width="1" fill="none" fill-rule="evenodd">
        <g class="Unchecked">
            <path d="M287.226919,0 L112.773081,0 C51.1844117,0 1.01182785,49.2929393 0.0147076783,110.643285 L0,112.408446 C0,174.632034 50.4900229,225 112.773081,225 L287.226919,225 C348.815588,225 398.988172,175.707061 399.985292,114.356715 L400,112.591554 C400,50.3679656 349.509977,0 287.226919,0 Z M283.217883,20 C336.134657,20 379.132371,60.8089316 379.987034,111.462075 L380,113 L379.987034,114.537925 C379.140918,164.684537 336.990397,205.182837 284.802378,205.987788 L283.217883,206 L116.782117,206 C63.8653427,206 20.8676286,165.191068 20.012966,114.537925 L20,113 L20.012966,111.462075 C20.859082,61.315463 63.0096028,20.8171631 115.197622,20.0122117 L116.782117,20 L283.217883,20 Z" class="border" fill="#c8c8c8"></path>
            <path d="M284.89,14 L115.5,14 C61.0999521,14 17,58.0999521 17,112.5 L17,112.5 C17,166.900048 61.0999521,211 115.5,211 L284.89,211 C339.290048,211 383.39,166.900048 383.39,112.5 L383.39,112.5 C383.39,58.0999521 339.290048,14 284.89,14 Z" class="background" fill="#F8F8F8"></path>
            <path d="M144.223329,44.9357336 C171.551365,56.254282 189.37,82.9207661 189.37,112.5 C189.37,152.884679 156.634678,185.624478 116.25,185.630002 C86.6707664,185.634045 60.0018457,167.819057 48.6795603,140.492569 C37.3572749,113.166082 43.6114987,81.7099246 64.5257454,60.7928177 C85.4399921,39.8757107 116.895293,33.6171853 144.223329,44.9357336 Z" class="knob" fill="#c8c8c8"></path>
        </g>
    </g>
</svg>
